<svg width="16" height="16" viewBox="0 0 16 16" fill="none" xmlns="http://www.w3.org/2000/svg">
<path d="M8.00016 1.33325C4.32683 1.33325 1.3335 4.32659 1.3335 7.99992C1.3335 11.6733 4.32683 14.6666 8.00016 14.6666C11.6735 14.6666 14.6668 11.6733 14.6668 7.99992C14.6668 4.32659 11.6735 1.33325 8.00016 1.33325ZM10.7068 7.51325L8.3535 9.86659C8.2535 9.96659 8.12683 10.0133 8.00016 10.0133C7.8735 10.0133 7.74683 9.96659 7.64683 9.86659L5.2935 7.51325C5.10016 7.31992 5.10016 6.99992 5.2935 6.80659C5.48683 6.61325 5.80683 6.61325 6.00016 6.80659L8.00016 8.80659L10.0002 6.80659C10.1935 6.61325 10.5135 6.61325 10.7068 6.80659C10.9002 6.99992 10.9002 7.31325 10.7068 7.51325Z" fill="#314158"/>
</svg>
