<svg width="25" height="24" viewBox="0 0 25 24" fill="none" xmlns="http://www.w3.org/2000/svg">
<g clip-path="url(#clip0_2254_4363)">
<path fill-rule="evenodd" clip-rule="evenodd" d="M5.66424 11.9999C5.66424 11.2377 5.79082 10.5071 6.01674 9.82174L2.06233 6.802C1.29164 8.3668 0.857422 10.13 0.857422 11.9999C0.857422 13.8681 1.2911 15.6303 2.06073 17.194L6.013 14.1684C5.78922 13.4863 5.66424 12.7583 5.66424 11.9999Z" fill="#FBBC05"/>
<path fill-rule="evenodd" clip-rule="evenodd" d="M12.6076 5.0666C14.2633 5.0666 15.7587 5.65327 16.9337 6.61327L20.3519 3.19993C18.269 1.3866 15.5985 0.266602 12.6076 0.266602C7.9642 0.266602 3.97348 2.92207 2.0625 6.80207L6.01691 9.8218C6.92807 7.05594 9.52535 5.0666 12.6076 5.0666Z" fill="#EB4335"/>
<path fill-rule="evenodd" clip-rule="evenodd" d="M12.6076 18.9332C9.52535 18.9332 6.92807 16.9438 6.01691 14.178L2.0625 17.1972C3.97348 21.0777 7.9642 23.7332 12.6076 23.7332C15.4735 23.7332 18.2097 22.7156 20.2632 20.8089L16.5097 17.907C15.4506 18.5742 14.1169 18.9332 12.6076 18.9332Z" fill="#34A853"/>
<path fill-rule="evenodd" clip-rule="evenodd" d="M23.8233 12C23.8233 11.3067 23.7165 10.56 23.5563 9.8667H12.6074V14.4H18.9097C18.5946 15.9456 17.7368 17.1339 16.5095 17.9072L20.2631 20.8091C22.4203 18.807 23.8233 15.8246 23.8233 12Z" fill="#4285F4"/>
</g>
<defs>
<clipPath id="clip0_2254_4363">
<rect width="24" height="24" fill="white" transform="translate(0.5)"/>
</clipPath>
</defs>
</svg>
