<svg width="152" height="56" viewBox="0 0 152 56" fill="none" xmlns="http://www.w3.org/2000/svg">
<path d="M28 37.6001C22.6981 37.6001 18.4 33.302 18.4 28.0001C18.4 22.6982 22.6981 18.4001 28 18.4001C33.3019 18.4001 37.6 22.6982 37.6 28.0001C37.6 33.302 33.3019 37.6001 28 37.6001Z" fill="#7F22FE"/>
<path d="M9.47926 31.8796C6.72755 32.356 4.8414 34.9655 5.89769 37.5051C7.3724 41.0505 9.72512 44.2094 12.7752 46.6778C17.1367 50.2073 22.6377 52.0933 28.2891 51.9965C33.9405 51.8997 39.3713 49.8263 43.6047 46.1494C46.5651 43.5782 48.8041 40.3405 50.152 36.7467C51.1174 34.1725 49.1395 31.6292 46.3725 31.2474C43.6057 30.8657 41.1213 32.8429 39.7546 35.2355C39.0138 36.5323 38.0521 37.7089 36.9 38.7096C34.471 40.8193 31.3551 42.0088 28.1127 42.0644C24.8701 42.1199 21.7138 41.0379 19.2115 39.0127C18.0244 38.0521 17.0215 36.9092 16.235 35.6385C14.7841 33.2942 12.231 31.4033 9.47926 31.8796Z" fill="#7F22FE"/>
<path d="M51.8144 30.3881C51.937 29.4278 52 28.4495 52 27.4568C52 14.502 41.2549 4 28 4C14.7452 4 4 14.502 4 27.4568C4 28.7308 4.10392 29.981 4.30394 31.2C5.4063 29.725 7.12682 28.6721 8.98522 28.3519C10.9959 28.0053 12.8233 28.482 14.3684 29.3729C14.2772 28.747 14.2299 28.1073 14.2299 27.4568C14.2299 20.0239 20.395 13.9984 28 13.9984C35.605 13.9984 41.7701 20.0239 41.7701 27.4568C41.7701 27.9469 41.7432 28.4309 41.691 28.9073C43.2035 27.9639 45.0131 27.4249 47.0354 27.7028C48.9035 27.9594 50.66 28.9524 51.8144 30.3881Z" fill="#8E51FF"/>
<path d="M73.608 28V11.2H76.848L84.576 22.768V11.2H87.816V28H84.576L76.848 16.456V28H73.608ZM91.5021 28V14.824C91.5021 13.816 91.6701 13.016 92.0061 12.424C92.3421 11.832 92.8221 11.4 93.4461 11.128C94.0701 10.856 94.8061 10.72 95.6541 10.72H96.9981V13.48H96.1581C95.6461 13.48 95.2781 13.584 95.0541 13.792C94.8461 13.984 94.7421 14.328 94.7421 14.824V28H91.5021ZM89.8701 18.808V16.096H97.2381V18.808H89.8701ZM105.093 28C104.245 28 103.501 27.872 102.861 27.616C102.237 27.344 101.749 26.904 101.397 26.296C101.045 25.672 100.869 24.824 100.869 23.752V18.808H98.8288V16.096H100.869L101.229 12.856H104.109V16.096H107.277V18.808H104.109V23.8C104.109 24.344 104.229 24.72 104.469 24.928C104.709 25.136 105.117 25.24 105.693 25.24H107.205V28H105.093ZM118.991 33.28V26.344C118.623 26.856 118.119 27.312 117.479 27.712C116.855 28.096 116.055 28.288 115.079 28.288C113.975 28.288 112.975 28.016 112.079 27.472C111.199 26.928 110.503 26.184 109.991 25.24C109.479 24.28 109.223 23.208 109.223 22.024C109.223 20.824 109.479 19.76 109.991 18.832C110.503 17.888 111.199 17.152 112.079 16.624C112.975 16.08 113.975 15.808 115.079 15.808C115.671 15.808 116.207 15.88 116.687 16.024C117.183 16.168 117.623 16.384 118.007 16.672C118.391 16.944 118.719 17.272 118.991 17.656L119.351 16.096H122.231V33.28H118.991ZM115.799 25.456C116.439 25.456 117.007 25.312 117.503 25.024C117.999 24.72 118.383 24.312 118.655 23.8C118.943 23.288 119.087 22.704 119.087 22.048C119.087 21.376 118.943 20.784 118.655 20.272C118.383 19.76 117.999 19.36 117.503 19.072C117.007 18.784 116.439 18.64 115.799 18.64C115.175 18.64 114.607 18.784 114.095 19.072C113.599 19.36 113.215 19.76 112.943 20.272C112.671 20.784 112.535 21.368 112.535 22.024C112.535 22.696 112.671 23.288 112.943 23.8C113.215 24.312 113.599 24.72 114.095 25.024C114.607 25.312 115.175 25.456 115.799 25.456ZM126.773 28.12C126.165 28.12 125.677 27.944 125.309 27.592C124.941 27.224 124.757 26.776 124.757 26.248C124.757 25.72 124.941 25.28 125.309 24.928C125.677 24.56 126.165 24.376 126.773 24.376C127.365 24.376 127.845 24.56 128.213 24.928C128.581 25.28 128.765 25.72 128.765 26.248C128.765 26.776 128.581 27.224 128.213 27.592C127.845 27.944 127.365 28.12 126.773 28.12Z" fill="#0F172B"/>
<path opacity="0.5" d="M72.75 49V42H73.75L77.32 47.37V42H78.32V49H77.32L73.75 43.63V49H72.75ZM79.8301 49V42H84.1901V42.82H80.8301V45.09H83.6401V45.89H80.8301V49H79.8301ZM86.9191 49V42.82H84.8391V42H89.9891V42.82H87.9191V49H86.9191ZM93.6289 49V42H94.8089L97.1089 46.75L99.3789 42H100.559V49H99.5589V43.76L97.4789 48.07H96.7189L94.6289 43.79V49H93.6289ZM103.666 49.12C103.266 49.12 102.93 49.0467 102.656 48.9C102.39 48.7533 102.19 48.5567 102.056 48.31C101.93 48.0633 101.866 47.8 101.866 47.52C101.866 47.18 101.95 46.89 102.116 46.65C102.29 46.41 102.536 46.2267 102.856 46.1C103.176 45.9667 103.556 45.9 103.996 45.9H105.276C105.276 45.5867 105.24 45.3267 105.166 45.12C105.093 44.9133 104.973 44.76 104.806 44.66C104.64 44.5533 104.416 44.5 104.136 44.5C103.85 44.5 103.606 44.5667 103.406 44.7C103.213 44.8333 103.09 45.0367 103.036 45.31H102.036C102.076 44.9567 102.193 44.66 102.386 44.42C102.58 44.1733 102.83 43.9867 103.136 43.86C103.443 43.7267 103.776 43.66 104.136 43.66C104.61 43.66 105.006 43.7433 105.326 43.91C105.646 44.0767 105.883 44.3133 106.036 44.62C106.196 44.92 106.276 45.28 106.276 45.7V49H105.406L105.326 48.14C105.26 48.28 105.173 48.41 105.066 48.53C104.966 48.6433 104.846 48.7467 104.706 48.84C104.573 48.9267 104.42 48.9933 104.246 49.04C104.073 49.0933 103.88 49.12 103.666 49.12ZM103.856 48.31C104.056 48.31 104.24 48.2667 104.406 48.18C104.58 48.0867 104.73 47.9633 104.856 47.81C104.983 47.6567 105.08 47.4833 105.146 47.29C105.22 47.0967 105.26 46.8933 105.266 46.68V46.61H104.086C103.813 46.61 103.586 46.6467 103.406 46.72C103.233 46.7867 103.106 46.8867 103.026 47.02C102.953 47.1467 102.916 47.29 102.916 47.45C102.916 47.6233 102.953 47.7767 103.026 47.91C103.1 48.0367 103.206 48.1367 103.346 48.21C103.486 48.2767 103.656 48.31 103.856 48.31ZM107.661 49V43.78H108.561L108.641 44.73C108.761 44.4967 108.918 44.3033 109.111 44.15C109.304 43.99 109.534 43.87 109.801 43.79C110.068 43.7033 110.368 43.66 110.701 43.66V44.72H110.161C109.961 44.72 109.771 44.7467 109.591 44.8C109.411 44.8467 109.251 44.9267 109.111 45.04C108.971 45.1533 108.861 45.31 108.781 45.51C108.701 45.7033 108.661 45.95 108.661 46.25V49H107.661ZM114.805 49L112.495 46.18L114.645 43.78H115.855L113.305 46.56L113.315 45.81L116.065 49H114.805ZM111.655 49V41.8H112.655V49H111.655ZM118.807 49.12C118.327 49.12 117.904 49.0067 117.537 48.78C117.171 48.5533 116.881 48.2367 116.667 47.83C116.461 47.4233 116.357 46.95 116.357 46.41C116.357 45.8633 116.461 45.3833 116.667 44.97C116.874 44.5567 117.161 44.2367 117.527 44.01C117.901 43.7767 118.331 43.66 118.817 43.66C119.324 43.66 119.751 43.7733 120.097 44C120.451 44.2267 120.717 44.53 120.897 44.91C121.084 45.29 121.177 45.71 121.177 46.17C121.177 46.2367 121.177 46.3067 121.177 46.38C121.177 46.4533 121.171 46.5367 121.157 46.63H117.097V45.92H120.187C120.174 45.46 120.037 45.1067 119.777 44.86C119.517 44.6133 119.194 44.49 118.807 44.49C118.541 44.49 118.297 44.5567 118.077 44.69C117.857 44.8167 117.677 45.0067 117.537 45.26C117.404 45.5067 117.337 45.82 117.337 46.2V46.48C117.337 46.8733 117.404 47.2067 117.537 47.48C117.671 47.7467 117.847 47.95 118.067 48.09C118.287 48.2233 118.531 48.29 118.797 48.29C119.137 48.29 119.404 48.2267 119.597 48.1C119.791 47.9667 119.937 47.7833 120.037 47.55H121.037C120.951 47.8433 120.804 48.11 120.597 48.35C120.397 48.59 120.144 48.78 119.837 48.92C119.537 49.0533 119.194 49.12 118.807 49.12ZM124.312 49C123.999 49 123.726 48.95 123.492 48.85C123.259 48.75 123.079 48.5833 122.952 48.35C122.826 48.1167 122.762 47.8 122.762 47.4V44.63H121.852V43.78H122.762L122.882 42.44H123.762V43.78H125.202V44.63H123.762V47.41C123.762 47.6967 123.819 47.8933 123.932 48C124.052 48.1 124.262 48.15 124.562 48.15H125.192V49H124.312ZM126.362 51.2V43.78H127.262L127.352 44.56C127.459 44.4 127.592 44.2533 127.752 44.12C127.912 43.98 128.102 43.87 128.322 43.79C128.542 43.7033 128.799 43.66 129.092 43.66C129.565 43.66 129.982 43.78 130.342 44.02C130.702 44.26 130.979 44.5867 131.172 45C131.372 45.4067 131.472 45.8733 131.472 46.4C131.472 46.9267 131.369 47.3967 131.162 47.81C130.962 48.2167 130.682 48.5367 130.322 48.77C129.969 49.0033 129.559 49.12 129.092 49.12C128.692 49.12 128.342 49.0433 128.042 48.89C127.749 48.73 127.522 48.51 127.362 48.23V51.2H126.362ZM128.912 48.25C129.212 48.25 129.475 48.1767 129.702 48.03C129.935 47.8767 130.119 47.66 130.252 47.38C130.385 47.1 130.452 46.77 130.452 46.39C130.452 46.0167 130.385 45.69 130.252 45.41C130.119 45.13 129.935 44.9133 129.702 44.76C129.475 44.6067 129.212 44.53 128.912 44.53C128.605 44.53 128.335 44.6067 128.102 44.76C127.869 44.9133 127.689 45.13 127.562 45.41C127.435 45.69 127.372 46.0167 127.372 46.39C127.372 46.77 127.435 47.1 127.562 47.38C127.689 47.66 127.869 47.8767 128.102 48.03C128.335 48.1767 128.605 48.25 128.912 48.25ZM132.68 49V41.8H133.68V49H132.68ZM136.733 49.12C136.333 49.12 135.996 49.0467 135.723 48.9C135.456 48.7533 135.256 48.5567 135.123 48.31C134.996 48.0633 134.933 47.8 134.933 47.52C134.933 47.18 135.016 46.89 135.183 46.65C135.356 46.41 135.603 46.2267 135.923 46.1C136.243 45.9667 136.623 45.9 137.063 45.9H138.343C138.343 45.5867 138.306 45.3267 138.233 45.12C138.159 44.9133 138.039 44.76 137.873 44.66C137.706 44.5533 137.483 44.5 137.203 44.5C136.916 44.5 136.673 44.5667 136.473 44.7C136.279 44.8333 136.156 45.0367 136.103 45.31H135.103C135.143 44.9567 135.259 44.66 135.453 44.42C135.646 44.1733 135.896 43.9867 136.203 43.86C136.509 43.7267 136.843 43.66 137.203 43.66C137.676 43.66 138.073 43.7433 138.393 43.91C138.713 44.0767 138.949 44.3133 139.103 44.62C139.263 44.92 139.343 45.28 139.343 45.7V49H138.473L138.393 48.14C138.326 48.28 138.239 48.41 138.133 48.53C138.033 48.6433 137.913 48.7467 137.773 48.84C137.639 48.9267 137.486 48.9933 137.313 49.04C137.139 49.0933 136.946 49.12 136.733 49.12ZM136.923 48.31C137.123 48.31 137.306 48.2667 137.473 48.18C137.646 48.0867 137.796 47.9633 137.923 47.81C138.049 47.6567 138.146 47.4833 138.213 47.29C138.286 47.0967 138.326 46.8933 138.333 46.68V46.61H137.153C136.879 46.61 136.653 46.6467 136.473 46.72C136.299 46.7867 136.173 46.8867 136.093 47.02C136.019 47.1467 135.983 47.29 135.983 47.45C135.983 47.6233 136.019 47.7767 136.093 47.91C136.166 48.0367 136.273 48.1367 136.413 48.21C136.553 48.2767 136.723 48.31 136.923 48.31ZM143.047 49.12C142.561 49.12 142.127 49.0067 141.747 48.78C141.367 48.5467 141.067 48.2267 140.847 47.82C140.634 47.4133 140.527 46.9433 140.527 46.41C140.527 45.8567 140.634 45.3767 140.847 44.97C141.067 44.5633 141.367 44.2433 141.747 44.01C142.127 43.7767 142.561 43.66 143.047 43.66C143.661 43.66 144.174 43.8233 144.587 44.15C145.007 44.4767 145.274 44.92 145.387 45.48H144.347C144.281 45.18 144.127 44.9467 143.887 44.78C143.647 44.6067 143.364 44.52 143.037 44.52C142.751 44.52 142.494 44.5933 142.267 44.74C142.047 44.88 141.874 45.09 141.747 45.37C141.621 45.6433 141.557 45.9833 141.557 46.39C141.557 46.6967 141.591 46.9667 141.657 47.2C141.731 47.4333 141.834 47.63 141.967 47.79C142.101 47.95 142.257 48.07 142.437 48.15C142.617 48.23 142.817 48.27 143.037 48.27C143.257 48.27 143.457 48.2333 143.637 48.16C143.817 48.08 143.971 47.9667 144.097 47.82C144.224 47.6733 144.307 47.5 144.347 47.3H145.387C145.274 47.8467 145.007 48.2867 144.587 48.62C144.167 48.9533 143.654 49.12 143.047 49.12ZM148.846 49.12C148.366 49.12 147.943 49.0067 147.576 48.78C147.21 48.5533 146.92 48.2367 146.706 47.83C146.5 47.4233 146.396 46.95 146.396 46.41C146.396 45.8633 146.5 45.3833 146.706 44.97C146.913 44.5567 147.2 44.2367 147.566 44.01C147.94 43.7767 148.37 43.66 148.856 43.66C149.363 43.66 149.79 43.7733 150.136 44C150.49 44.2267 150.756 44.53 150.936 44.91C151.123 45.29 151.216 45.71 151.216 46.17C151.216 46.2367 151.216 46.3067 151.216 46.38C151.216 46.4533 151.21 46.5367 151.196 46.63H147.136V45.92H150.226C150.213 45.46 150.076 45.1067 149.816 44.86C149.556 44.6133 149.233 44.49 148.846 44.49C148.58 44.49 148.336 44.5567 148.116 44.69C147.896 44.8167 147.716 45.0067 147.576 45.26C147.443 45.5067 147.376 45.82 147.376 46.2V46.48C147.376 46.8733 147.443 47.2067 147.576 47.48C147.71 47.7467 147.886 47.95 148.106 48.09C148.326 48.2233 148.57 48.29 148.836 48.29C149.176 48.29 149.443 48.2267 149.636 48.1C149.83 47.9667 149.976 47.7833 150.076 47.55H151.076C150.99 47.8433 150.843 48.11 150.636 48.35C150.436 48.59 150.183 48.78 149.876 48.92C149.576 49.0533 149.233 49.12 148.846 49.12Z" fill="#0F172B"/>
</svg>
